<?xml version="1.0" encoding="UTF-8" standalone="no"?>
<svg
   id="Ebene_3"
   data-name="Ebene 3"
   viewBox="0 0 141.5 80.93"
   version="1.1"
   sodipodi:docname="Element 8 fixed.svg"
   inkscape:version="1.4.2 (ebf0e940d0, 2025-05-08)"
   xmlns:inkscape="http://www.inkscape.org/namespaces/inkscape"
   xmlns:sodipodi="http://sodipodi.sourceforge.net/DTD/sodipodi-0.dtd"
   xmlns:xlink="http://www.w3.org/1999/xlink"
   xmlns="http://www.w3.org/2000/svg"
   xmlns:svg="http://www.w3.org/2000/svg">
  <sodipodi:namedview
     id="namedview20"
     pagecolor="#ffffff"
     bordercolor="#000000"
     borderopacity="0.25"
     inkscape:showpageshadow="2"
     inkscape:pageopacity="0.0"
     inkscape:pagecheckerboard="0"
     inkscape:deskcolor="#d1d1d1"
     inkscape:zoom="19.55789"
     inkscape:cx="50.056524"
     inkscape:cy="32.723366"
     inkscape:window-width="1920"
     inkscape:window-height="1128"
     inkscape:window-x="0"
     inkscape:window-y="0"
     inkscape:window-maximized="1"
     inkscape:current-layer="g20" />
  <defs
     id="defs4">
    <style
       id="style1">
      .cls-1 {
        fill: url(#Unbenannter_Verlauf_67-2);
      }

      .cls-2 {
        fill: url(#Unbenannter_Verlauf_17-2);
      }

      .cls-3 {
        fill: url(#Unbenannter_Verlauf_67);
      }

      .cls-4 {
        fill: url(#Unbenannter_Verlauf_17);
      }

      .cls-5 {
        fill: #343434;
      }
    </style>
    <linearGradient
       id="Unbenannter_Verlauf_17"
       data-name="Unbenannter Verlauf 17"
       x1="34.58"
       y1="-5.97"
       x2="10.61"
       y2="59.88"
       gradientUnits="userSpaceOnUse">
      <stop
         offset="0"
         stop-color="#575756"
         id="stop1" />
      <stop
         offset=".6"
         stop-color="#3c3c3b"
         id="stop2" />
    </linearGradient>
    <linearGradient
       id="Unbenannter_Verlauf_67"
       data-name="Unbenannter Verlauf 67"
       x1="39.49"
       y1="35.86"
       x2="58.53"
       y2="30.04"
       gradientUnits="userSpaceOnUse">
      <stop
         offset="0"
         stop-color="#ffd616"
         id="stop3" />
      <stop
         offset=".6"
         stop-color="#eaaf03"
         id="stop4" />
    </linearGradient>
    <linearGradient
       id="Unbenannter_Verlauf_17-2"
       data-name="Unbenannter Verlauf 17"
       x1="204.18"
       y1="35.86"
       x2="223.22"
       y2="30.04"
       gradientTransform="translate(273.32) rotate(-180) scale(1 -1) skewX(34)"
       xlink:href="#Unbenannter_Verlauf_17" />
    <linearGradient
       id="Unbenannter_Verlauf_67-2"
       data-name="Unbenannter Verlauf 67"
       x1="24.79"
       y1="65.9"
       x2="62.55"
       y2="54.36"
       xlink:href="#Unbenannter_Verlauf_67" />
  </defs>
  <g
     id="Ebene_1"
     data-name="Ebene 1">
    <g
       id="g20">
      <path
         class="cls-5"
         d="M71.15,26.84h-5.8v3.48h5.64v2.05h-5.64v4.84h5.8v2.05h-7.99v-14.48h7.99v2.05Z"
         id="path4" />
      <path
         class="cls-5"
         d="M76.18,24.79v12.42h4.26v2.05h-6.44v-14.48h2.18Z"
         id="path5" />
      <path
         class="cls-5"
         d="M90.39,26.84h-5.8v3.48h5.64v2.05h-5.64v4.84h5.8v2.05h-7.99v-14.48h7.99v2.05Z"
         id="path6" />
      <path
         class="cls-5"
         d="M95.41,30.57l5.64-5.78h2.92l-6.54,6.55,6.58,7.92h-2.93l-5.21-6.44-.45.45v5.99h-2.18v-14.48h2.18v5.78Z"
         id="path7" />
      <path
         class="cls-5"
         d="M110.13,26.84v12.42h-2.18v-12.42h-3.33v-2.05h8.83v2.05h-3.32Z"
         id="path8" />
      <path
         class="cls-5"
         d="M120.27,33.1l4.48,6.17h-2.67l-4.13-5.93h-.39v5.93h-2.18v-14.48h2.56c1.91,0,3.29.36,4.14,1.08.94.8,1.41,1.86,1.41,3.17,0,1.03-.29,1.91-.88,2.64s-1.36,1.21-2.33,1.42ZM117.55,31.44h.69c2.07,0,3.1-.79,3.1-2.37,0-1.48-1.01-2.22-3.02-2.22h-.78v4.59Z"
         id="path9" />
      <path
         class="cls-5"
         d="M125.7,31.96c0-2.04.75-3.79,2.24-5.25,1.49-1.46,3.28-2.19,5.36-2.19s3.83.74,5.31,2.21c1.48,1.47,2.22,3.25,2.22,5.32s-.74,3.85-2.23,5.3c-1.49,1.46-3.3,2.18-5.41,2.18-1.87,0-3.55-.65-5.03-1.94-1.64-1.43-2.46-3.31-2.46-5.63ZM127.9,31.99c0,1.6.54,2.92,1.61,3.95,1.07,1.03,2.3,1.55,3.7,1.55,1.52,0,2.8-.53,3.84-1.58,1.04-1.06,1.57-2.36,1.57-3.88s-.52-2.84-1.55-3.88c-1.03-1.05-2.29-1.57-3.81-1.57s-2.78.52-3.82,1.57c-1.04,1.04-1.56,2.32-1.56,3.84Z"
         id="path10" />
      <path
         class="cls-5"
         d="M70.04,49.73h7.47c0,.77-.03,1.47-.1,2.09-.06.63-.19,1.21-.38,1.75-.27.76-.63,1.42-1.09,2.01s-1,1.07-1.62,1.46c-.62.39-1.3.69-2.04.89-.74.2-1.52.31-2.34.31-1.13,0-2.15-.19-3.08-.56-.93-.37-1.73-.89-2.39-1.56-.67-.67-1.18-1.48-1.56-2.42s-.56-1.98-.56-3.12.18-2.16.55-3.1.88-1.74,1.56-2.41c.67-.67,1.48-1.18,2.43-1.56s2-.56,3.17-.56c1.51,0,2.84.33,3.97.98,1.14.65,2.04,1.66,2.71,3.03l-3.57,1.48c-.33-.79-.76-1.36-1.3-1.71-.53-.35-1.14-.52-1.81-.52-.56,0-1.08.11-1.54.32-.46.21-.85.51-1.18.9-.33.39-.58.86-.77,1.41-.19.55-.28,1.17-.28,1.84,0,.61.08,1.18.24,1.71.16.52.4.98.72,1.36s.72.68,1.19.89c.47.21,1.02.32,1.65.32.37,0,.73-.04,1.08-.12.35-.08.66-.22.93-.4.28-.19.5-.43.68-.72.18-.29.3-.65.36-1.08h-3.09v-2.92Z"
         id="path11" />
      <path
         class="cls-5"
         d="M83.58,43.35v11.29h4.51v3.19h-8.28v-14.48h3.76Z"
         id="path12" />
      <path
         class="cls-5"
         d="M99.43,55.32h-5.38l-.86,2.52h-4.01l5.51-14.48h4.11l5.51,14.48h-4.01l-.86-2.52ZM98.43,52.45l-1.69-4.82-1.69,4.82h3.38Z"
         id="path13" />
      <path
         class="cls-5"
         d="M114.01,47.06c-.41-.33-.82-.58-1.23-.74-.41-.16-.81-.24-1.19-.24-.49,0-.88.12-1.19.35-.31.23-.46.53-.46.9,0,.26.08.47.23.63.15.17.36.31.6.43.25.12.53.23.84.32.31.09.62.19.93.29,1.23.41,2.13.96,2.7,1.64s.85,1.58.85,2.68c0,.74-.12,1.41-.37,2.02s-.61,1.12-1.09,1.55c-.48.43-1.07.76-1.77,1-.7.24-1.49.36-2.37.36-1.83,0-3.53-.54-5.09-1.63l1.61-3.03c.56.5,1.12.87,1.67,1.11.55.24,1.09.36,1.63.36.61,0,1.07-.14,1.37-.42.3-.28.45-.6.45-.96,0-.22-.04-.41-.12-.57-.08-.16-.21-.31-.38-.44-.18-.13-.41-.26-.7-.37s-.64-.24-1.05-.38c-.49-.15-.96-.32-1.43-.51-.47-.19-.88-.43-1.25-.74-.36-.31-.66-.69-.88-1.16-.22-.47-.34-1.06-.34-1.78s.12-1.37.36-1.95c.24-.58.57-1.08,1-1.5.43-.42.95-.74,1.57-.97.62-.23,1.32-.35,2.08-.35.72,0,1.47.1,2.25.3.78.2,1.53.49,2.25.87l-1.5,2.94Z"
         id="path14" />
      <path
         class="cls-5"
         d="M126.64,46.54h-4.47v2.42h4.22v3.19h-4.22v2.5h4.47v3.19h-8.24v-14.48h8.24v3.19Z"
         id="path15" />
      <path
         class="cls-5"
         d="M141.5,57.83h-4.69l-3.59-5.57v5.57h-3.76v-14.48h5.86c.81,0,1.51.12,2.11.36s1.1.56,1.49.97c.39.41.68.88.88,1.42.2.54.3,1.11.3,1.73,0,1.1-.27,1.99-.8,2.68s-1.31,1.15-2.35,1.39l4.55,5.93ZM133.23,49.82h.71c.74,0,1.31-.15,1.71-.46.4-.31.6-.75.6-1.32s-.2-1.02-.6-1.32c-.4-.31-.97-.46-1.71-.46h-.71v3.57Z"
         id="path16" />
      <path
         class="cls-4"
         d="M38.37,44.38l-7.36,21.32c-3.75-.01-7.89-1.08-11.35-2.6C-12.13,49.19-3.29,1.79,31.29,0h19.22c1.65.01,2.55,1.28,2.01,2.84l-5.62,16.04c-.55,1.56-2.34,2.84-3.99,2.84l-11.58.04c-13.73,1.37-12.3,22.52,1,22.52,1.68,0,5.87.09,6.04.1Z"
         id="path17"
         style="stroke:none;stroke-opacity:1" />
      <path
         class="cls-3"
         d="m 47.56,24.15 h 7.51 c 1.65,0 2.56,1.28 2.02,2.84 l -4.21,12.24 c -0.54,1.56 -2.33,2.84 -3.98,2.84 h -7.51 z"
         id="path18"
         style="stroke:none;stroke-opacity:1" />
      <path
         class="cls-2"
         d="m 44.78,24.15 h -7.51 c -1.65,0 -3.42,1.28 -3.94,2.85 l -4.04,12.22 c -0.52,1.57 0.41,2.85 2.06,2.85 h 7.51 z"
         id="path19"
         style="stroke:none;stroke-opacity:1" />
      <path
         class="cls-1"
         d="M56.66,44.35h-15.54c-.27,0-.52.18-.6.43l-1.81,5.45-.4,1.2c-.02.06-.04.13-.07.2l-.56,1.69c-.06.17-.12.35-.17.53l-.75,2.27c-.56,1.7-1.13,3.39-1.55,4.68l-5.46,16.45c-1.39,4.2-.14,4.92,2.79,1.6l26.27-29.75c2.31-2.61,1.34-4.75-2.14-4.75Z"
         id="path20"
         style="stroke:none;stroke-opacity:1" />
    </g>
  </g>
</svg>
